<svg width="29" height="29" viewBox="0 0 29 29" fill="none" xmlns="http://www.w3.org/2000/svg">
<path d="M1.20831 24.1666V20.7833C1.20831 20.0986 1.38453 19.4693 1.73696 18.8953C2.08939 18.3213 2.55762 17.8833 3.14165 17.5812C4.39026 16.9569 5.65901 16.4887 6.9479 16.1765C8.23679 15.8644 9.54581 15.7083 10.875 15.7083C12.2041 15.7083 13.5132 15.8644 14.8021 16.1765C16.091 16.4887 17.3597 16.9569 18.6083 17.5812C19.1923 17.8833 19.6606 18.3213 20.013 18.8953C20.3654 19.4693 20.5416 20.0986 20.5416 20.7833V24.1666H1.20831ZM22.9583 24.1666V20.5416C22.9583 19.6555 22.7116 18.8047 22.2182 17.989C21.7248 17.1734 21.025 16.4736 20.1187 15.8896C21.1458 16.0104 22.1125 16.2168 23.0187 16.5088C23.925 16.8008 24.7708 17.1583 25.5562 17.5812C26.2812 17.984 26.835 18.4321 27.2177 18.9255C27.6003 19.4189 27.7916 19.9576 27.7916 20.5416V24.1666H22.9583ZM7.46144 13.0802C6.51491 12.1337 6.04165 10.9958 6.04165 9.66665C6.04165 8.33748 6.51491 7.19963 7.46144 6.2531C8.40797 5.30658 9.54581 4.83331 10.875 4.83331C12.2041 4.83331 13.342 5.30658 14.2885 6.2531C15.235 7.19963 15.7083 8.33748 15.7083 9.66665C15.7083 10.9958 15.235 12.1337 14.2885 13.0802C13.342 14.0267 12.2041 14.5 10.875 14.5C9.54581 14.5 8.40797 14.0267 7.46144 13.0802ZM21.5385 13.0802C20.592 14.0267 19.4541 14.5 18.125 14.5C17.9035 14.5 17.6215 14.4748 17.2791 14.4245C16.9368 14.3741 16.6548 14.3187 16.4333 14.2583C16.9771 13.6139 17.3949 12.8989 17.687 12.1135C17.979 11.3281 18.125 10.5125 18.125 9.66665C18.125 8.82081 17.979 8.00519 17.687 7.21977C17.3949 6.43435 16.9771 5.71942 16.4333 5.07498C16.7153 4.97429 16.9972 4.90883 17.2791 4.87863C17.5611 4.84842 17.843 4.83331 18.125 4.83331C19.4541 4.83331 20.592 5.30658 21.5385 6.2531C22.485 7.19963 22.9583 8.33748 22.9583 9.66665C22.9583 10.9958 22.485 12.1337 21.5385 13.0802ZM3.62498 21.75H18.125V20.7833C18.125 20.5618 18.0696 20.3604 17.9588 20.1791C17.8481 19.9979 17.7021 19.8569 17.5208 19.7562C16.4333 19.2125 15.3357 18.8047 14.2281 18.5328C13.1205 18.2609 12.0028 18.125 10.875 18.125C9.7472 18.125 8.62949 18.2609 7.52185 18.5328C6.41422 18.8047 5.31665 19.2125 4.22915 19.7562C4.0479 19.8569 3.90189 19.9979 3.79113 20.1791C3.68036 20.3604 3.62498 20.5618 3.62498 20.7833V21.75ZM12.5818 11.3734C13.055 10.9002 13.2916 10.3312 13.2916 9.66665C13.2916 9.00206 13.055 8.43314 12.5818 7.95988C12.1085 7.48661 11.5396 7.24998 10.875 7.24998C10.2104 7.24998 9.64147 7.48661 9.16821 7.95988C8.69495 8.43314 8.45831 9.00206 8.45831 9.66665C8.45831 10.3312 8.69495 10.9002 9.16821 11.3734C9.64147 11.8467 10.2104 12.0833 10.875 12.0833C11.5396 12.0833 12.1085 11.8467 12.5818 11.3734Z" fill="#8372FF"/>
</svg>
