<svg width="29" height="29" viewBox="0 0 27 20" fill="none" xmlns="http://www.w3.org/2000/svg">
<path d="M0 19.3333V15.95C0 15.2653 0.176215 14.6359 0.528646 14.062C0.881076 13.488 1.34931 13.05 1.93333 12.7479C3.18194 12.1236 4.45069 11.6554 5.73958 11.3432C7.02847 11.0311 8.3375 10.875 9.66667 10.875C10.9958 10.875 12.3049 11.0311 13.5938 11.3432C14.8826 11.6554 16.1514 12.1236 17.4 12.7479C17.984 13.05 18.4523 13.488 18.8047 14.062C19.1571 14.6359 19.3333 15.2653 19.3333 15.95V19.3333H0ZM21.75 19.3333V15.7083C21.75 14.8222 21.5033 13.9714 21.0099 13.1557C20.5165 12.3401 19.8167 11.6403 18.9104 11.0563C19.9375 11.1771 20.9042 11.3835 21.8104 11.6755C22.7167 11.9675 23.5625 12.325 24.3479 12.7479C25.0729 13.1507 25.6267 13.5988 26.0094 14.0922C26.392 14.5856 26.5833 15.1243 26.5833 15.7083V19.3333H21.75ZM6.25313 8.24688C5.3066 7.30035 4.83333 6.1625 4.83333 4.83333C4.83333 3.50417 5.3066 2.36632 6.25313 1.41979C7.19965 0.473264 8.3375 0 9.66667 0C10.9958 0 12.1337 0.473264 13.0802 1.41979C14.0267 2.36632 14.5 3.50417 14.5 4.83333C14.5 6.1625 14.0267 7.30035 13.0802 8.24688C12.1337 9.1934 10.9958 9.66667 9.66667 9.66667C8.3375 9.66667 7.19965 9.1934 6.25313 8.24688ZM20.3302 8.24688C19.3837 9.1934 18.2458 9.66667 16.9167 9.66667C16.6951 9.66667 16.4132 9.64149 16.0708 9.59115C15.7285 9.5408 15.4465 9.48542 15.225 9.425C15.7688 8.78056 16.1866 8.06563 16.4786 7.28021C16.7707 6.49479 16.9167 5.67917 16.9167 4.83333C16.9167 3.9875 16.7707 3.17188 16.4786 2.38646C16.1866 1.60104 15.7688 0.886111 15.225 0.241667C15.5069 0.140972 15.7889 0.0755208 16.0708 0.0453125C16.3528 0.0151042 16.6347 0 16.9167 0C18.2458 0 19.3837 0.473264 20.3302 1.41979C21.2767 2.36632 21.75 3.50417 21.75 4.83333C21.75 6.1625 21.2767 7.30035 20.3302 8.24688ZM2.41667 16.9167H16.9167V15.95C16.9167 15.7285 16.8613 15.5271 16.7505 15.3458C16.6398 15.1646 16.4938 15.0236 16.3125 14.9229C15.225 14.3792 14.1274 13.9714 13.0198 13.6995C11.9122 13.4276 10.7944 13.2917 9.66667 13.2917C8.53889 13.2917 7.42118 13.4276 6.31354 13.6995C5.2059 13.9714 4.10833 14.3792 3.02083 14.9229C2.83958 15.0236 2.69358 15.1646 2.58281 15.3458C2.47205 15.5271 2.41667 15.7285 2.41667 15.95V16.9167ZM11.3734 6.5401C11.8467 6.06684 12.0833 5.49792 12.0833 4.83333C12.0833 4.16875 11.8467 3.59983 11.3734 3.12656C10.9002 2.6533 10.3313 2.41667 9.66667 2.41667C9.00208 2.41667 8.43316 2.6533 7.9599 3.12656C7.48663 3.59983 7.25 4.16875 7.25 4.83333C7.25 5.49792 7.48663 6.06684 7.9599 6.5401C8.43316 7.01337 9.00208 7.25 9.66667 7.25C10.3313 7.25 10.9002 7.01337 11.3734 6.5401Z" fill="white"/>
</svg>
